<svg xmlns="http://www.w3.org/2000/svg" version="1.1" xmlns:xlink="http://www.w3.org/1999/xlink" xmlns:svgjs="http://svgjs.dev/svgjs" width="1500" height="155" viewBox="0 0 1500 155"><g transform="matrix(1,0,0,1,-0.9090909090909918,0.37051981555616464)"><svg viewBox="0 0 396 41" data-background-color="#ffffff" preserveAspectRatio="xMidYMid meet" height="155" width="1500" xmlns="http://www.w3.org/2000/svg" xmlns:xlink="http://www.w3.org/1999/xlink"><g id="tight-bounds" transform="matrix(1,0,0,1,0.2400000000000091,-0.09800846734066226)"><svg viewBox="0 0 395.52 41.1960169346813" height="41.1960169346813" width="395.52"><g><svg viewBox="0 0 508.7483839331064 52.9895" height="41.1960169346813" width="395.52"><g><svg viewBox="0 0 508.7483839331064 52.9895" height="52.9895" width="508.7483839331064"><g id="textblocktransform"><svg viewBox="0 0 508.7483839331064 52.9895" height="52.9895" width="508.7483839331064" id="textblock"><g><svg viewBox="0 0 508.7483839331064 52.9895" height="52.9895" width="508.7483839331064"><g><svg><g></g><g></g></svg></g><g><svg><g></g><g><svg></svg></g></svg></g><g id="text-0"><svg viewBox="0 0 508.7483839331064 52.9895" height="52.9895" width="508.7483839331064"><g transform="matrix(1,0,0,1,0,9.74475)"><svg width="188.10000000000005" viewBox="-8.3 -32 188.09 32.75" height="32.75" data-palette-color="#233565"><path d="M12.9-19.4L12.9-19.4-8.3-21.65 13.25-21.65Q13-20.65 12.9-19.4ZM-6.9-26.45L14.6-26.45 13.85-24.25-6.9-26.45ZM-7.85-16.85L12.9-16.85Q13-15.5 13.3-14.6L13.3-14.6-7.85-16.85ZM19.9-9.8L19.9-9.8-6.55-12.05 15-12.05Q16.65-10.45 19.9-9.8ZM-3.15-31.25L18.35-31.25Q17.2-30.5 16.15-29.2L16.15-29.2-3.15-31.25ZM10.55-5.05L-7.4-7.25 11.3-7.25 10.55-5.05ZM8.95-0.2L-8.25-2.4 9.7-2.4 8.95-0.2ZM10.65-0.55L13.45-8.8Q17.65-7.65 21.13-7.65 24.6-7.65 26.8-7.95L26.8-7.95 27.2-10.45 23.05-10.85Q18.3-11.3 16.32-13 14.35-14.7 14.35-17.8L14.35-17.8Q14.35-19.15 14.65-20.8L14.65-20.8Q15.8-27.2 18.85-29.6 21.9-32 28.23-32 34.55-32 39.4-30.75L39.4-30.75 36.8-22.75Q32.45-23.5 29.83-23.5 27.2-23.5 25.3-23.25L25.3-23.25 24.9-20.8 28.25-20.45Q33.35-19.9 35.5-18.03 37.65-16.15 37.65-13L37.65-13Q37.65-9.8 36.3-6.4L36.3-6.4Q35.55-4.65 34.73-3.48 33.9-2.3 32.63-1.48 31.35-0.65 30.3-0.23 29.25 0.2 27.6 0.4L27.6 0.4Q25.3 0.75 21.9 0.75L21.9 0.75Q15.7 0.75 10.65-0.55L10.65-0.55ZM72.55 0L64.15 0 65.7-9.15 60.1-9.15 58.5 0 50.1 0 54.7-26.45 63.15-26.45 61.5-17.3 67.15-17.3 68.75-26.45 77.2-26.45 72.55 0ZM48.85-2.4L48.45-0.15 27.25-2.4 48.85-2.4ZM50.55-12.05L50.15-9.8 28.95-12.05 50.55-12.05ZM51.4-16.85L51-14.6 29.8-16.85 51.4-16.85ZM52.25-21.65L51.85-19.4 30.65-21.65 52.25-21.65ZM53.05-26.45L52.7-24.2 31.5-26.45 53.05-26.45ZM49.7-7.25L49.3-5 28.1-7.25 49.7-7.25ZM113.55 0L104.8 0 104.59-4.05 98.3-4.05 96.75 0 88.09 0 99.2-26.45 111.59-26.45 113.55 0ZM100.95-11.2L104.59-11.2 104.59-18.8 103.9-18.8 100.95-11.2ZM87.45-2.4L86.5-0.2 66-2.4 87.45-2.4ZM89.5-7.25L88.55-5.05 68.05-7.25 89.5-7.25ZM91.5-12.05L90.59-9.85 70.09-12.05 91.5-12.05ZM93.55-16.85L92.59-14.65 72.15-16.85 93.55-16.85ZM95.55-21.65L94.65-19.45 74.2-21.65 95.55-21.65ZM97.55-26.45L96.65-24.3 76.25-26.45 97.55-26.45ZM147.59-26.45L146.24-18.95 140.84-18.95 137.54 0 128.74 0 132.04-18.95 126.49-18.95 127.84-26.45 147.59-26.45ZM127.64-2.4L127.24-0.15 106.04-2.4 127.64-2.4ZM129.34-12.05L128.94-9.8 107.74-12.05 129.34-12.05ZM130.19-16.85L129.79-14.6 108.59-16.85 130.19-16.85ZM125.39-21.65L124.99-19.4 103.79-21.65 125.39-21.65ZM126.19-26.45L125.84-24.2 104.64-26.45 126.19-26.45ZM128.49-7.25L128.09-5 106.89-7.25 128.49-7.25ZM152.44-2.4L152.04-0.15 130.84-2.4 152.44-2.4ZM157.34-21.65L157.19-19.4 135.99-21.65 157.34-21.65ZM157.69-26.45L157.54-24.2 136.34-26.45 157.69-26.45ZM132.39-7.25L153.99-7.25 153.09-6.2 152.89-5.05 132.39-7.25ZM141.09-16.85L162.69-16.85 160.84-14.75 141.09-16.85ZM156.49-9.95L136.79-12.05 158.39-12.05 156.49-9.95ZM176.54-7.15L175.34 0 153.59 0 154.54-5.55 166.54-18.85 166.44-19.15 158.69-19.15 159.19-26.45 179.79-26.45 178.79-20.9 166.74-7.45 166.84-7.15 176.54-7.15Z" opacity="1" transform="matrix(1,0,0,1,0,0)" fill="#233565" class="undefined-yy-0"></path></svg></g><g><svg xmlns:dc="http://purl.org/dc/elements/1.1/" xmlns:sodipodi="http://sodipodi.sourceforge.net/DTD/sodipodi-0.dtd" xmlns:cc="http://creativecommons.org/ns#" xmlns:svg="http://www.w3.org/2000/svg" xmlns:rdf="http://www.w3.org/1999/02/22-rdf-syntax-ns#" xmlns:inkscape="http://www.inkscape.org/namespaces/inkscape" xmlns="http://www.w3.org/2000/svg" xmlns:xlink="http://www.w3.org/1999/xlink" version="1.1" x="200.61050000000006" y="0" viewBox="0.37596662281929105 0.387 45.000321541913046 30.837" enable-background="new 0 0 46.813 32.079" xml:space="preserve" height="52.9895" width="77.32738393310638" class="icon-cg-0" data-fill-palette-color="accent" id="cg-0"><g fill="#0025eb" data-fill-palette-color="accent"><rect x="5.159" y="6.815" fill="none" width="1.442" height="1.502"></rect><rect x="3.237" y="6.815" fill="none" width="1.442" height="1.502"></rect><rect x="5.159" y="12.583" fill="none" width="1.442" height="1.442"></rect><rect x="3.237" y="12.583" fill="none" width="1.442" height="1.442"></rect><rect x="3.237" y="10.661" fill="none" width="1.442" height="1.442"></rect><rect x="7.082" y="12.583" fill="none" width="1.442" height="1.442"></rect><rect x="10.927" y="12.583" fill="none" width="1.383" height="1.442"></rect><rect x="9.005" y="6.815" fill="none" width="1.442" height="1.502"></rect><rect x="9.005" y="12.583" fill="none" width="1.442" height="1.442"></rect><rect x="7.082" y="6.815" fill="none" width="1.442" height="1.502"></rect><rect x="7.082" y="8.798" fill="none" width="1.442" height="1.382"></rect><rect x="9.005" y="10.661" fill="none" width="1.442" height="1.442"></rect><rect x="10.927" y="10.661" fill="none" width="1.383" height="1.442"></rect><rect x="10.927" y="6.815" fill="none" width="1.383" height="1.502"></rect><rect x="5.159" y="8.798" fill="none" width="1.442" height="1.382"></rect><rect x="12.791" y="10.661" fill="none" width="1.501" height="1.442"></rect><rect x="10.927" y="8.798" fill="none" width="1.383" height="1.382"></rect><rect x="9.005" y="8.798" fill="none" width="1.442" height="1.382"></rect><rect x="5.159" y="10.661" fill="none" width="1.442" height="1.442"></rect><rect x="12.791" y="8.798" fill="none" width="1.501" height="1.382"></rect><rect x="7.082" y="10.661" fill="none" width="1.442" height="1.442"></rect><rect x="14.772" y="12.583" fill="none" width="1.446" height="1.442"></rect><path fill="none" d="M2.695 24.096h-0.24c0 0-0.661 0.33-0.781 0.767-0.121 0.436 0.24 0.344 0.781 0.06C2.996 24.637 3.296 24.096 2.695 24.096z"></path><circle fill="none" cx="36.231" cy="28.009" r="1.8"></circle><path fill="none" d="M23.664 22.834c0 0-1.021 0-1.322 0-0.3 0-0.793 0.541 0.535 0.48C24.204 23.255 24.144 22.834 23.664 22.834z"></path><circle fill="none" cx="9.435" cy="27.889" r="1.8"></circle><path fill="none" d="M29.912 17.248c-0.541 0-3.425 0-3.425 0s-0.36 3.604-0.36 3.845 6.429 0 6.429 0 0.18-2.103-0.36-2.884C31.654 17.428 30.453 17.248 29.912 17.248z"></path><path fill="none" d="M43.969 20.912c0 0-0.901 1.683-0.721 2.283s1.112 0.391 1.143 0C44.421 22.804 44.421 20.912 43.969 20.912z"></path><rect x="12.791" y="12.583" fill="none" width="1.501" height="1.442"></rect><path fill="none" d="M20.479 17.788c-1.321 0.361-3.425 2.104-3.425 2.104v1.562c0 0 7.27 0 7.21-0.24-0.061-0.24 0.66-3.965 0.66-3.965C24.264 17.248 21.8 17.426 20.479 17.788z"></path><path fill="none" d="M2.035 15.111h15.38V5.314H2.035V15.111zM2.756 6.335h13.942v8.171H2.756V6.335z"></path><rect x="14.772" y="8.798" fill="none" width="1.446" height="1.382"></rect><rect x="14.772" y="6.815" fill="none" width="1.446" height="1.502"></rect><rect x="3.237" y="8.798" fill="none" width="1.442" height="1.382"></rect><rect x="14.772" y="10.661" fill="none" width="1.446" height="1.442"></rect><rect x="12.791" y="6.815" fill="none" width="1.501" height="1.502"></rect><path d="M36.224 24.863c-1.757 0-3.182 1.422-3.182 3.18 0 1.759 1.423 3.181 3.182 3.181 1.758 0 3.18-1.422 3.18-3.181C39.404 26.285 37.98 24.863 36.224 24.863zM36.231 29.776c-0.976 0-1.767-0.791-1.767-1.767 0-0.977 0.791-1.767 1.767-1.767 0.977 0 1.767 0.79 1.767 1.767C37.998 28.985 37.205 29.776 36.231 29.776z" fill="#0025eb" data-fill-palette-color="accent"></path><path d="M9.428 24.742c-1.756 0-3.182 1.423-3.182 3.181 0 1.759 1.424 3.181 3.182 3.181s3.181-1.422 3.181-3.181C12.609 26.165 11.184 24.742 9.428 24.742zM9.435 29.656c-0.975 0-1.767-0.791-1.767-1.767 0-0.977 0.792-1.767 1.767-1.767 0.976 0 1.767 0.79 1.767 1.767C11.202 28.865 10.41 29.656 9.435 29.656z" fill="#0025eb" data-fill-palette-color="accent"></path><path d="M45.293 24.457c-0.211-0.21-0.481-0.48-0.481-0.78 0-0.299 0-3.004-0.48-3.423-0.48-0.422-3.845 0-5.047-0.302-1.201-0.302-4.746-2.712-6.49-3.351-3.752-1.372-11.834-0.195-13.516 0.165-1.683 0.36-7.578 4.191-8.472 4.326-5.586 0.841-9.072 2.463-9.313 3.004-0.24 0.542-0.421 0.841-0.902 1.021-0.481 0.181 0 1.321-0.059 1.683-0.06 0.36 0.42 0 0.42 0.3 0 0.301 0 1.202 0 1.202h4.626c0 0 0.3-3.966 3.725-3.966 3.785 0 3.904 3.905 3.904 3.905v0.721h19.226v-0.9c0 0 0.421-3.546 3.936-3.577 3.515-0.028 3.575 3.577 3.755 3.577s4.445-0.662 4.807-1.082S45.502 24.667 45.293 24.457zM2.455 24.922c-0.541 0.284-0.902 0.376-0.781-0.06 0.12-0.437 0.781-0.767 0.781-0.767h0.24C3.296 24.096 2.996 24.637 2.455 24.922zM22.877 23.315c-1.329 0.061-0.835-0.48-0.535-0.48 0.301 0 1.322 0 1.322 0C24.144 22.834 24.204 23.255 22.877 23.315zM24.264 21.212c0.06 0.24-7.21 0.24-7.21 0.24v-1.562c0 0 2.104-1.742 3.425-2.104s3.785-0.54 4.445-0.54C24.925 17.248 24.204 20.972 24.264 21.212zM32.555 21.092c0 0-6.429 0.24-6.429 0s0.36-3.845 0.36-3.845 2.884 0 3.425 0 1.742 0.181 2.283 0.961C32.735 18.99 32.555 21.092 32.555 21.092zM44.391 23.195c-0.03 0.391-0.962 0.601-1.143 0s0.721-2.283 0.721-2.283C44.421 20.912 44.421 22.804 44.391 23.195z" fill="#0025eb" data-fill-palette-color="accent"></path><path d="M16.698 6.335H2.756v8.171h13.942V6.335zM16.458 8.798h-0.24v1.382h0.237v0.48h-0.237v1.442h0.237v0.481h-0.237v1.442h-1.446v0.24h-0.48v-0.24h-1.501v0.24H12.31v-0.24h-1.383v0.24h-0.48v-0.24H9.005v0.24h-0.48v-0.24H7.082v0.24H6.601v-0.24H5.159v0.24h-0.48v-0.24H3.237v-1.442H2.996v-0.481h0.241v-1.442H2.996v-0.48h0.241V8.798H2.996v-0.48h0.241V6.815h1.442v-0.24h0.48v0.24h1.442v-0.24h0.481v0.24h1.442v-0.24h0.48v0.24h1.442v-0.24h0.48v0.24h1.383v-0.24h0.481v0.24h1.501v-0.24h0.48v0.24h1.446v1.502h0.24V8.798z" fill="#0025eb" data-fill-palette-color="accent"></path><polygon points="4.679,12.583 4.679,14.025 4.679,14.266 5.159,14.266 5.159,14.025 5.159,12.583  " fill="#0025eb" data-fill-palette-color="accent"></polygon><rect x="4.679" y="10.661" width="0.48" height="1.442" fill="#0025eb" data-fill-palette-color="accent"></rect><polygon points="5.159,8.317 5.159,6.815 5.159,6.575 4.679,6.575 4.679,6.815 4.679,8.317  " fill="#0025eb" data-fill-palette-color="accent"></polygon><rect x="4.679" y="8.798" width="0.48" height="1.382" fill="#0025eb" data-fill-palette-color="accent"></rect><rect x="6.601" y="10.661" width="0.481" height="1.442" fill="#0025eb" data-fill-palette-color="accent"></rect><polygon points="6.601,12.583 6.601,14.025 6.601,14.266 7.082,14.266 7.082,14.025 7.082,12.583  " fill="#0025eb" data-fill-palette-color="accent"></polygon><polygon points="7.082,8.317 7.082,6.815 7.082,6.575 6.601,6.575 6.601,6.815 6.601,8.317  " fill="#0025eb" data-fill-palette-color="accent"></polygon><rect x="6.601" y="8.798" width="0.481" height="1.382" fill="#0025eb" data-fill-palette-color="accent"></rect><polygon points="9.005,8.317 9.005,6.815 9.005,6.575 8.524,6.575 8.524,6.815 8.524,8.317  " fill="#0025eb" data-fill-palette-color="accent"></polygon><polygon points="8.524,12.583 8.524,14.025 8.524,14.266 9.005,14.266 9.005,14.025 9.005,12.583  " fill="#0025eb" data-fill-palette-color="accent"></polygon><rect x="8.524" y="10.661" width="0.48" height="1.442" fill="#0025eb" data-fill-palette-color="accent"></rect><rect x="8.524" y="8.798" width="0.48" height="1.382" fill="#0025eb" data-fill-palette-color="accent"></rect><rect x="10.447" y="10.661" width="0.48" height="1.442" fill="#0025eb" data-fill-palette-color="accent"></rect><rect x="10.447" y="8.798" width="0.48" height="1.382" fill="#0025eb" data-fill-palette-color="accent"></rect><polygon points="10.447,12.583 10.447,14.025 10.447,14.266 10.927,14.266 10.927,14.025 10.927,12.583  " fill="#0025eb" data-fill-palette-color="accent"></polygon><polygon points="10.927,8.317 10.927,6.815 10.927,6.575 10.447,6.575 10.447,6.815 10.447,8.317  " fill="#0025eb" data-fill-palette-color="accent"></polygon><rect x="12.31" y="8.798" width="0.481" height="1.382" fill="#0025eb" data-fill-palette-color="accent"></rect><polygon points="12.791,8.317 12.791,6.815 12.791,6.575 12.31,6.575 12.31,6.815 12.31,8.317  " fill="#0025eb" data-fill-palette-color="accent"></polygon><polygon points="12.31,12.583 12.31,14.025 12.31,14.266 12.791,14.266 12.791,14.025 12.791,12.583  " fill="#0025eb" data-fill-palette-color="accent"></polygon><rect x="12.31" y="10.661" width="0.481" height="1.442" fill="#0025eb" data-fill-palette-color="accent"></rect><polygon points="14.772,8.317 14.772,6.815 14.772,6.575 14.292,6.575 14.292,6.815 14.292,8.317  " fill="#0025eb" data-fill-palette-color="accent"></polygon><rect x="14.292" y="10.661" width="0.48" height="1.442" fill="#0025eb" data-fill-palette-color="accent"></rect><rect x="14.292" y="8.798" width="0.48" height="1.382" fill="#0025eb" data-fill-palette-color="accent"></rect><polygon points="14.292,12.583 14.292,14.025 14.292,14.266 14.772,14.266 14.772,14.025 14.772,12.583  " fill="#0025eb" data-fill-palette-color="accent"></polygon><polygon points="14.772,8.317 14.292,8.317 12.791,8.317 12.31,8.317 10.927,8.317 10.447,8.317 9.005,8.317 8.524,8.317    7.082,8.317 6.601,8.317 5.159,8.317 4.679,8.317 3.237,8.317 2.996,8.317 2.996,8.798 3.237,8.798 4.679,8.798 5.159,8.798    6.601,8.798 7.082,8.798 8.524,8.798 9.005,8.798 10.447,8.798 10.927,8.798 12.31,8.798 12.791,8.798 14.292,8.798 14.772,8.798    16.218,8.798 16.458,8.798 16.458,8.317 16.218,8.317  " fill="#0025eb" data-fill-palette-color="accent"></polygon><polygon points="14.292,10.18 12.791,10.18 12.31,10.18 10.927,10.18 10.447,10.18 9.005,10.18 8.524,10.18 7.082,10.18    6.601,10.18 5.159,10.18 4.679,10.18 3.237,10.18 2.996,10.18 2.996,10.661 3.237,10.661 4.679,10.661 5.159,10.661 6.601,10.661    7.082,10.661 8.524,10.661 9.005,10.661 10.447,10.661 10.927,10.661 12.31,10.661 12.791,10.661 14.292,10.661 14.772,10.661    16.218,10.661 16.455,10.661 16.455,10.18 16.218,10.18 14.772,10.18  " fill="#0025eb" data-fill-palette-color="accent"></polygon><polygon points="14.292,12.103 12.791,12.103 12.31,12.103 10.927,12.103 10.447,12.103 9.005,12.103 8.524,12.103 7.082,12.103    6.601,12.103 5.159,12.103 4.679,12.103 3.237,12.103 2.996,12.103 2.996,12.583 3.237,12.583 4.679,12.583 5.159,12.583    6.601,12.583 7.082,12.583 8.524,12.583 9.005,12.583 10.447,12.583 10.927,12.583 12.31,12.583 12.791,12.583 14.292,12.583    14.772,12.583 16.218,12.583 16.455,12.583 16.455,12.103 16.218,12.103 14.772,12.103  " fill="#0025eb" data-fill-palette-color="accent"></polygon><path d="M18.077 1.648h-1.622v2.073h-1.923V1.648h-3.845v2.073H8.764V1.648H4.919v2.073H2.996V1.648H1.434v14.12h16.643V1.648zM17.416 15.111H2.035V5.314h15.38V15.111z" fill="#0025eb" data-fill-palette-color="accent"></path><rect x="3.476" y="0.387" width="0.961" height="2.884" fill="#0025eb" data-fill-palette-color="accent"></rect><rect x="15.012" y="0.387" width="0.961" height="2.884" fill="#0025eb" data-fill-palette-color="accent"></rect><rect x="9.304" y="0.387" width="0.961" height="2.884" fill="#0025eb" data-fill-palette-color="accent"></rect></g></svg></g><g transform="matrix(1,0,0,1,290.4483839331064,10.49475)"><svg width="218.29999999999998" viewBox="-12.5 -31.25 218.29 31.25" height="31.25" data-palette-color="#233565"><path d="M15.7-31.25L30.7-31.25Q39.25-31.25 39.25-23.6L39.25-23.6Q39.25-20.45 38.3-17.6L38.3-17.6Q36.55-12.2 32.8-10.4L32.8-10.4 36.1 0 25.65 0 23.35-9.3 21.3-9.3 19.7 0 10.2 0 15.7-31.25ZM22.65-17L24.85-17Q26.55-17 27.43-17.38 28.3-17.75 28.63-19.53 28.95-21.3 28.95-21.7L28.95-21.7Q28.95-22.7 28.18-22.98 27.4-23.25 25.65-23.25L25.65-23.25 23.75-23.25 22.65-17ZM9.1-2.4L8.7-0.15-12.5-2.4 9.1-2.4ZM10.8-12.05L10.4-9.8-10.8-12.05 10.8-12.05ZM12.45-21.65L12.05-19.4-9.1-21.65 12.45-21.65ZM13.3-26.45L12.9-24.2-8.25-26.45 13.3-26.45ZM9.95-7.25L9.55-5-11.65-7.25 9.95-7.25ZM14.15-31.25L13.75-29-7.4-31.25 14.15-31.25ZM11.6-16.85L11.2-14.6-9.95-16.85 11.6-16.85ZM68.55-15.55L67.7-10.75 60.25-10.75 59.65-7.35 68.9-7.35 67.6 0 49.95 0 54.55-26.45 72.15-26.45 69.8-18.95 61.65-18.95 61.05-15.55 68.55-15.55ZM48.7-2.4L48.3-0.15 27.1-2.4 48.7-2.4ZM50.4-12.05L50-9.8 28.8-12.05 50.4-12.05ZM51.25-16.85L50.85-14.6 29.65-16.85 51.25-16.85ZM52.1-21.65L51.7-19.4 30.5-21.65 52.1-21.65ZM52.9-26.45L52.55-24.2 31.35-26.45 52.9-26.45ZM49.55-7.25L49.15-5 27.95-7.25 49.55-7.25ZM105.05 0L98.25 0 93.1-9.9 92.9-9.9 91.15 0 82.75 0 87.35-26.45 94.15-26.45 99.35-16.6 99.65-16.6 101.35-26.45 109.7-26.45 105.05 0ZM81.5-2.4L81.1-0.15 59.9-2.4 81.5-2.4ZM83.2-12.05L82.8-9.8 61.6-12.05 83.2-12.05ZM84.05-16.85L83.65-14.6 62.45-16.85 84.05-16.85ZM84.9-21.65L84.5-19.4 63.3-21.65 84.9-21.65ZM85.7-26.45L85.35-24.2 64.15-26.45 85.7-26.45ZM82.35-7.25L81.95-5 60.75-7.25 82.35-7.25ZM143.69-26.45L142.34-18.95 136.94-18.95 133.64 0 124.84 0 128.14-18.95 122.59-18.95 123.94-26.45 143.69-26.45ZM123.74-2.4L123.34-0.15 102.14-2.4 123.74-2.4ZM125.44-12.05L125.04-9.8 103.84-12.05 125.44-12.05ZM126.29-16.85L125.89-14.6 104.69-16.85 126.29-16.85ZM121.49-21.65L121.09-19.4 99.89-21.65 121.49-21.65ZM122.29-26.45L121.94-24.2 100.74-26.45 122.29-26.45ZM124.59-7.25L124.19-5 102.99-7.25 124.59-7.25ZM175.19 0L166.44 0 166.24-4.05 159.94-4.05 158.39 0 149.74 0 160.84-26.45 173.24-26.45 175.19 0ZM162.59-11.2L166.24-11.2 166.24-18.8 165.54-18.8 162.59-11.2ZM149.09-2.4L148.14-0.2 127.64-2.4 149.09-2.4ZM151.14-7.25L150.19-5.05 129.69-7.25 151.14-7.25ZM153.14-12.05L152.24-9.85 131.74-12.05 153.14-12.05ZM155.19-16.85L154.24-14.65 133.79-16.85 155.19-16.85ZM157.19-21.65L156.29-19.45 135.84-21.65 157.19-21.65ZM159.19-26.45L158.29-24.3 137.89-26.45 159.19-26.45ZM205.79-7.35L204.49 0 188.24 0 192.84-26.45 201.64-26.45 198.29-7.35 205.79-7.35ZM186.99-2.4L186.59-0.15 165.39-2.4 186.99-2.4ZM188.69-12.05L188.29-9.8 167.09-12.05 188.69-12.05ZM189.54-16.85L189.14-14.6 167.94-16.85 189.54-16.85ZM190.39-21.65L189.99-19.4 168.79-21.65 190.39-21.65ZM191.19-26.45L190.84-24.2 169.64-26.45 191.19-26.45ZM187.84-7.25L187.44-5 166.24-7.25 187.84-7.25Z" opacity="1" transform="matrix(1,0,0,1,0,0)" fill="#233565" class="undefined-yy-1"></path></svg></g></svg></g></svg></g></svg></g></svg></g></svg></g><defs></defs></svg><rect width="395.52" height="41.1960169346813" fill="none" stroke="none" visibility="hidden"></rect></g></svg></g></svg>